# xmcd
#
# Track frame offsets: 
#        150
#        17302
#        37588
#        78674
#        127625
#        157414
#        185075
#        202372
#
# Disc length: 3002 seconds
#
# Revision: 0
# Processed by: cddbd v1.5.2PL0 Copyright (c) Steve Scherf et al.
# Submitted via: ExactAudioCopy v0.99pb4
#
DISCID=620bb808
DTITLE=Julie Black - Live on WMNF 040909
DYEAR=2009
DGENRE=Blues
TTITLE0=Marv Speaks
TTITLE1=Under the Gun
TTITLE2=I'm Free
TTITLE3=You Don't Have to Stay
TTITLE4=Something I Crave
TTITLE5=Both of Us
TTITLE6=Love Her Anyway
TTITLE7=Love this Mama
EXTD=
EXTT0=
EXTT1=
EXTT2=
EXTT3=
EXTT4=
EXTT5=
EXTT6=
EXTT7=
PLAYORDER=
